<mxfile host="app.diagrams.net" modified="2021-09-27T17:54:14.044Z" agent="5.0 (Macintosh; Intel Mac OS X 10_15_7) AppleWebKit/605.1.15 (KHTML, like Gecko) Version/15.0 Safari/605.1.15" etag="P2XAKCleiFxH_PA0csFm" version="15.3.5" type="github" pages="2">
  <diagram id="mrlcNKMXqdH1hxtZ-vON" name="Lapas 1">
    <mxGraphModel dx="193" dy="120" grid="1" gridSize="10" guides="1" tooltips="1" connect="1" arrows="1" fold="1" page="1" pageScale="1" pageWidth="1169" pageHeight="827" background="none" math="1" shadow="0">
      <root>
        <mxCell id="qyo3BmIz39AAJsVtNr6B-0" />
        <mxCell id="qyo3BmIz39AAJsVtNr6B-1" value="Frame" style="locked=1;" parent="qyo3BmIz39AAJsVtNr6B-0" />
        <mxCell id="qyo3BmIz39AAJsVtNr6B-26" value="" style="whiteSpace=wrap;html=1;fillColor=none;fontFamily=Arial;" parent="qyo3BmIz39AAJsVtNr6B-1" vertex="1">
          <mxGeometry x="19.685" y="19.685" width="1129.9189999999999" height="787.4" as="geometry" />
        </mxCell>
        <mxCell id="qyo3BmIz39AAJsVtNr6B-19" value="" style="whiteSpace=wrap;html=1;fillColor=none;fontFamily=Arial;" parent="qyo3BmIz39AAJsVtNr6B-1" vertex="1">
          <mxGeometry x="39.37" y="39.37" width="1090.549" height="748.03" as="geometry" />
        </mxCell>
        <mxCell id="qyo3BmIz39AAJsVtNr6B-30" value="" style="endArrow=none;html=1;entryX=0;entryY=0;entryDx=0;entryDy=0;exitX=0;exitY=0;exitDx=0;exitDy=0;fontFamily=Arial;" parent="qyo3BmIz39AAJsVtNr6B-1" source="qyo3BmIz39AAJsVtNr6B-19" target="qyo3BmIz39AAJsVtNr6B-26" edge="1">
          <mxGeometry width="50" height="50" relative="1" as="geometry">
            <mxPoint x="430" y="430" as="sourcePoint" />
            <mxPoint x="480" y="380" as="targetPoint" />
          </mxGeometry>
        </mxCell>
        <mxCell id="qyo3BmIz39AAJsVtNr6B-31" value="" style="endArrow=none;html=1;entryX=0;entryY=1;entryDx=0;entryDy=0;exitX=0;exitY=1;exitDx=0;exitDy=0;fontFamily=Arial;" parent="qyo3BmIz39AAJsVtNr6B-1" source="qyo3BmIz39AAJsVtNr6B-26" target="qyo3BmIz39AAJsVtNr6B-19" edge="1">
          <mxGeometry width="50" height="50" relative="1" as="geometry">
            <mxPoint x="50" y="49" as="sourcePoint" />
            <mxPoint x="29.684999999999945" y="29.685000000000173" as="targetPoint" />
          </mxGeometry>
        </mxCell>
        <mxCell id="qyo3BmIz39AAJsVtNr6B-33" value="" style="endArrow=none;html=1;entryX=1;entryY=0;entryDx=0;entryDy=0;exitX=1;exitY=0;exitDx=0;exitDy=0;fontFamily=Arial;" parent="qyo3BmIz39AAJsVtNr6B-1" source="qyo3BmIz39AAJsVtNr6B-26" target="qyo3BmIz39AAJsVtNr6B-19" edge="1">
          <mxGeometry width="50" height="50" relative="1" as="geometry">
            <mxPoint x="1190" y="240" as="sourcePoint" />
            <mxPoint x="1210" y="160" as="targetPoint" />
          </mxGeometry>
        </mxCell>
        <mxCell id="ZVRA5W9yP344IZaA_FTQ-182" value="" style="group;container=1;fontFamily=Arial;" parent="qyo3BmIz39AAJsVtNr6B-1" vertex="1" connectable="0">
          <mxGeometry x="421.26" y="610.235" width="708.6699999999998" height="177.18500000000017" as="geometry" />
        </mxCell>
        <mxCell id="ZVRA5W9yP344IZaA_FTQ-47" value="" style="whiteSpace=wrap;html=1;fillColor=none;fontFamily=Arial;" parent="ZVRA5W9yP344IZaA_FTQ-182" vertex="1">
          <mxGeometry x="275.59" y="79.1350000000001" width="78.74" height="19.685" as="geometry" />
        </mxCell>
        <mxCell id="ZVRA5W9yP344IZaA_FTQ-13" value="" style="whiteSpace=wrap;html=1;fillColor=none;fontFamily=Arial;" parent="ZVRA5W9yP344IZaA_FTQ-182" vertex="1">
          <mxGeometry x="216.535" y="157.495" width="59.055" height="19.685" as="geometry" />
        </mxCell>
        <mxCell id="ZVRA5W9yP344IZaA_FTQ-14" value="" style="whiteSpace=wrap;html=1;fillColor=none;fontFamily=Arial;" parent="ZVRA5W9yP344IZaA_FTQ-182" vertex="1">
          <mxGeometry x="216.535" y="137.81500000000017" width="59.055" height="19.685" as="geometry" />
        </mxCell>
        <mxCell id="ZVRA5W9yP344IZaA_FTQ-15" value="" style="whiteSpace=wrap;html=1;fillColor=none;fontFamily=Arial;" parent="ZVRA5W9yP344IZaA_FTQ-182" vertex="1">
          <mxGeometry x="216.535" y="118.1350000000001" width="59.055" height="19.685" as="geometry" />
        </mxCell>
        <mxCell id="ZVRA5W9yP344IZaA_FTQ-16" value="" style="whiteSpace=wrap;html=1;fillColor=none;fontFamily=Arial;" parent="ZVRA5W9yP344IZaA_FTQ-182" vertex="1">
          <mxGeometry x="216.535" y="98.45500000000027" width="59.055" height="19.685" as="geometry" />
        </mxCell>
        <mxCell id="ZVRA5W9yP344IZaA_FTQ-17" value="" style="whiteSpace=wrap;html=1;fillColor=none;fontFamily=Arial;" parent="ZVRA5W9yP344IZaA_FTQ-182" vertex="1">
          <mxGeometry x="216.535" y="79.1350000000001" width="59.055" height="19.685" as="geometry" />
        </mxCell>
        <mxCell id="ZVRA5W9yP344IZaA_FTQ-18" value="(Parašas)" style="whiteSpace=wrap;html=1;fillColor=none;fontFamily=Arial;" parent="ZVRA5W9yP344IZaA_FTQ-182" vertex="1">
          <mxGeometry x="216.535" y="59.45500000000027" width="59.055" height="19.685" as="geometry" />
        </mxCell>
        <mxCell id="ZVRA5W9yP344IZaA_FTQ-7" value="" style="whiteSpace=wrap;html=1;fillColor=none;fontFamily=Arial;" parent="ZVRA5W9yP344IZaA_FTQ-182" vertex="1">
          <mxGeometry x="98.425" y="157.485" width="118.11" height="19.685" as="geometry" />
        </mxCell>
        <mxCell id="ZVRA5W9yP344IZaA_FTQ-8" value="" style="whiteSpace=wrap;html=1;fillColor=none;fontFamily=Arial;" parent="ZVRA5W9yP344IZaA_FTQ-182" vertex="1">
          <mxGeometry x="98.425" y="137.80500000000006" width="118.11" height="19.685" as="geometry" />
        </mxCell>
        <mxCell id="ZVRA5W9yP344IZaA_FTQ-9" value="" style="whiteSpace=wrap;html=1;fillColor=none;fontFamily=Arial;" parent="ZVRA5W9yP344IZaA_FTQ-182" vertex="1">
          <mxGeometry x="98.425" y="118.12500000000011" width="118.11" height="19.685" as="geometry" />
        </mxCell>
        <mxCell id="ZVRA5W9yP344IZaA_FTQ-10" value="" style="whiteSpace=wrap;html=1;fillColor=none;fontFamily=Arial;" parent="ZVRA5W9yP344IZaA_FTQ-182" vertex="1">
          <mxGeometry x="98.425" y="98.44500000000016" width="118.11" height="19.685" as="geometry" />
        </mxCell>
        <mxCell id="ZVRA5W9yP344IZaA_FTQ-11" value="" style="whiteSpace=wrap;html=1;fillColor=none;fontFamily=Arial;" parent="ZVRA5W9yP344IZaA_FTQ-182" vertex="1">
          <mxGeometry x="98.425" y="79.12500000000011" width="118.11" height="19.685" as="geometry" />
        </mxCell>
        <mxCell id="ZVRA5W9yP344IZaA_FTQ-12" value="V Pavardė" style="whiteSpace=wrap;html=1;fillColor=none;fontFamily=Arial;" parent="ZVRA5W9yP344IZaA_FTQ-182" vertex="1">
          <mxGeometry x="98.425" y="59.445000000000164" width="118.11" height="19.685" as="geometry" />
        </mxCell>
        <mxCell id="qyo3BmIz39AAJsVtNr6B-32" value="" style="endArrow=none;html=1;exitX=1;exitY=1;exitDx=0;exitDy=0;entryX=1;entryY=1;entryDx=0;entryDy=0;fontFamily=Arial;" parent="ZVRA5W9yP344IZaA_FTQ-182" source="qyo3BmIz39AAJsVtNr6B-26" edge="1">
          <mxGeometry width="50" height="50" relative="1" as="geometry">
            <mxPoint x="-391.57500000000005" y="206.85000000000002" as="sourcePoint" />
            <mxPoint x="708.6599999999994" y="177.16500000000008" as="targetPoint" />
          </mxGeometry>
        </mxCell>
        <mxCell id="qyo3BmIz39AAJsVtNr6B-34" value="" style="whiteSpace=wrap;html=1;fillColor=none;fontFamily=Arial;" parent="ZVRA5W9yP344IZaA_FTQ-182" vertex="1">
          <mxGeometry y="59.05499999999995" width="708.66" height="118.11" as="geometry" />
        </mxCell>
        <mxCell id="qyo3BmIz39AAJsVtNr6B-35" value="Dokumento numeris" style="whiteSpace=wrap;html=1;fillColor=none;fontFamily=Arial;fontSize=15;" parent="ZVRA5W9yP344IZaA_FTQ-182" vertex="1">
          <mxGeometry x="354.3299999999999" width="354.33" height="59.055" as="geometry" />
        </mxCell>
        <mxCell id="qyo3BmIz39AAJsVtNr6B-36" value="https://github.com/liudasdd" style="whiteSpace=wrap;html=1;fillColor=none;fontFamily=Arial;fontStyle=1;fontSize=20;container=1;" parent="ZVRA5W9yP344IZaA_FTQ-182" vertex="1">
          <mxGeometry y="0.0049999999999954525" width="354.33" height="59.055" as="geometry">
            <mxRectangle y="0.0049999999999954525" width="110" height="30" as="alternateBounds" />
          </mxGeometry>
        </mxCell>
        <mxCell id="qyo3BmIz39AAJsVtNr6B-37" value="" style="whiteSpace=wrap;html=1;fillColor=none;fontFamily=Arial;" parent="ZVRA5W9yP344IZaA_FTQ-182" vertex="1">
          <mxGeometry x="649.6099999999999" y="59.06499999999994" width="59.055" height="118.11" as="geometry" />
        </mxCell>
        <mxCell id="qyo3BmIz39AAJsVtNr6B-38" value="" style="whiteSpace=wrap;html=1;fillColor=none;fontFamily=Arial;" parent="ZVRA5W9yP344IZaA_FTQ-182" vertex="1">
          <mxGeometry x="590.55" y="58.684999999999945" width="59.055" height="118.11" as="geometry" />
        </mxCell>
        <UserObject label="&lt;font style=&quot;font-size: 23px&quot;&gt;Dokumento pavadinimas&lt;/font&gt;" tooltip="Dokumento pavadinimas&#xa;" id="qyo3BmIz39AAJsVtNr6B-39">
          <mxCell style="whiteSpace=wrap;html=1;fillColor=none;fontFamily=Arial;" parent="ZVRA5W9yP344IZaA_FTQ-182" vertex="1">
            <mxGeometry x="354.33000000000004" y="58.684999999999945" width="236.22" height="118.11" as="geometry" />
          </mxCell>
        </UserObject>
        <mxCell id="ZVRA5W9yP344IZaA_FTQ-0" value="" style="whiteSpace=wrap;html=1;fillColor=none;fontFamily=Arial;" parent="ZVRA5W9yP344IZaA_FTQ-182" vertex="1">
          <mxGeometry y="157.4799999999999" width="98.425" height="19.685" as="geometry" />
        </mxCell>
        <mxCell id="ZVRA5W9yP344IZaA_FTQ-2" value="" style="whiteSpace=wrap;html=1;fillColor=none;fontFamily=Arial;" parent="ZVRA5W9yP344IZaA_FTQ-182" vertex="1">
          <mxGeometry y="137.79499999999996" width="98.425" height="19.685" as="geometry" />
        </mxCell>
        <mxCell id="ZVRA5W9yP344IZaA_FTQ-3" value="" style="whiteSpace=wrap;html=1;fillColor=none;fontFamily=Arial;" parent="ZVRA5W9yP344IZaA_FTQ-182" vertex="1">
          <mxGeometry y="118.1099999999999" width="98.425" height="19.685" as="geometry" />
        </mxCell>
        <mxCell id="ZVRA5W9yP344IZaA_FTQ-4" value="" style="whiteSpace=wrap;html=1;fillColor=none;fontFamily=Arial;" parent="ZVRA5W9yP344IZaA_FTQ-182" vertex="1">
          <mxGeometry y="98.42499999999995" width="98.425" height="19.685" as="geometry" />
        </mxCell>
        <mxCell id="ZVRA5W9yP344IZaA_FTQ-5" value="" style="whiteSpace=wrap;html=1;fillColor=none;fontFamily=Arial;" parent="ZVRA5W9yP344IZaA_FTQ-182" vertex="1">
          <mxGeometry y="78.74500000000012" width="98.425" height="19.685" as="geometry" />
        </mxCell>
        <mxCell id="ZVRA5W9yP344IZaA_FTQ-6" value="Rengė" style="whiteSpace=wrap;html=1;fillColor=none;fontFamily=Arial;" parent="ZVRA5W9yP344IZaA_FTQ-182" vertex="1">
          <mxGeometry y="59.06500000000017" width="98.425" height="19.685" as="geometry" />
        </mxCell>
        <mxCell id="ZVRA5W9yP344IZaA_FTQ-43" value="" style="whiteSpace=wrap;html=1;fillColor=none;fontFamily=Arial;" parent="ZVRA5W9yP344IZaA_FTQ-182" vertex="1">
          <mxGeometry x="275.59" y="157.495" width="78.74" height="19.685" as="geometry" />
        </mxCell>
        <mxCell id="ZVRA5W9yP344IZaA_FTQ-44" value="" style="whiteSpace=wrap;html=1;fillColor=none;fontFamily=Arial;" parent="ZVRA5W9yP344IZaA_FTQ-182" vertex="1">
          <mxGeometry x="275.59" y="137.81500000000017" width="78.74" height="19.685" as="geometry" />
        </mxCell>
        <mxCell id="ZVRA5W9yP344IZaA_FTQ-45" value="" style="whiteSpace=wrap;html=1;fillColor=none;fontFamily=Arial;" parent="ZVRA5W9yP344IZaA_FTQ-182" vertex="1">
          <mxGeometry x="275.59" y="118.1350000000001" width="78.74" height="19.685" as="geometry" />
        </mxCell>
        <mxCell id="ZVRA5W9yP344IZaA_FTQ-46" value="" style="whiteSpace=wrap;html=1;fillColor=none;fontFamily=Arial;" parent="ZVRA5W9yP344IZaA_FTQ-182" vertex="1">
          <mxGeometry x="275.59" y="98.45500000000027" width="78.74" height="19.685" as="geometry" />
        </mxCell>
        <mxCell id="ZVRA5W9yP344IZaA_FTQ-48" value="2021-09-30" style="whiteSpace=wrap;html=1;fillColor=none;fontFamily=Arial;" parent="ZVRA5W9yP344IZaA_FTQ-182" vertex="1">
          <mxGeometry x="275.59" y="59.45500000000027" width="78.74" height="19.685" as="geometry" />
        </mxCell>
        <mxCell id="ZVRA5W9yP344IZaA_FTQ-50" value="1" style="whiteSpace=wrap;html=1;fillColor=none;fontFamily=Arial;" parent="ZVRA5W9yP344IZaA_FTQ-182" vertex="1">
          <mxGeometry x="590.55" y="137.615" width="59.06" height="39.37" as="geometry" />
        </mxCell>
        <mxCell id="ZVRA5W9yP344IZaA_FTQ-51" value="Lapas" style="whiteSpace=wrap;html=1;fillColor=none;fontFamily=Arial;" parent="ZVRA5W9yP344IZaA_FTQ-182" vertex="1">
          <mxGeometry x="590.55" y="117.93500000000017" width="59.055" height="19.685" as="geometry" />
        </mxCell>
        <mxCell id="ZVRA5W9yP344IZaA_FTQ-53" value="A" style="whiteSpace=wrap;html=1;fillColor=none;fontFamily=Arial;" parent="ZVRA5W9yP344IZaA_FTQ-182" vertex="1">
          <mxGeometry x="590.55" y="78.93500000000017" width="59.055" height="39.37" as="geometry" />
        </mxCell>
        <mxCell id="ZVRA5W9yP344IZaA_FTQ-54" value="Laida" style="whiteSpace=wrap;html=1;fillColor=none;fontFamily=Arial;" parent="ZVRA5W9yP344IZaA_FTQ-182" vertex="1">
          <mxGeometry x="590.55" y="59.05499999999995" width="59.055" height="19.685" as="geometry" />
        </mxCell>
        <mxCell id="ZVRA5W9yP344IZaA_FTQ-56" value="2" style="whiteSpace=wrap;html=1;fillColor=none;fontFamily=Arial;" parent="ZVRA5W9yP344IZaA_FTQ-182" vertex="1">
          <mxGeometry x="649.6099999999999" y="137.81500000000017" width="59.055" height="39.37" as="geometry" />
        </mxCell>
        <mxCell id="ZVRA5W9yP344IZaA_FTQ-57" value="Lapų" style="whiteSpace=wrap;html=1;fillColor=none;fontFamily=Arial;" parent="ZVRA5W9yP344IZaA_FTQ-182" vertex="1">
          <mxGeometry x="649.6099999999999" y="118.1350000000001" width="59.055" height="19.685" as="geometry" />
        </mxCell>
        <mxCell id="ZVRA5W9yP344IZaA_FTQ-59" value="1:1" style="whiteSpace=wrap;html=1;fillColor=none;fontFamily=Arial;" parent="ZVRA5W9yP344IZaA_FTQ-182" vertex="1">
          <mxGeometry x="649.6099999999999" y="78.745" width="59.06" height="39.37" as="geometry" />
        </mxCell>
        <mxCell id="ZVRA5W9yP344IZaA_FTQ-60" value="Mastelis" style="whiteSpace=wrap;html=1;fillColor=none;fontFamily=Arial;" parent="ZVRA5W9yP344IZaA_FTQ-182" vertex="1">
          <mxGeometry x="649.6099999999999" y="59.05499999999995" width="59.055" height="19.685" as="geometry" />
        </mxCell>
        <mxCell id="ZVRA5W9yP344IZaA_FTQ-127" value="Brėžinys" style="" parent="qyo3BmIz39AAJsVtNr6B-0" />
      </root>
    </mxGraphModel>
  </diagram>
  <diagram name="Lapas 2" id="poTgA2Lsn0RYjLuebqSz">
    <mxGraphModel dx="830" dy="515" grid="1" gridSize="10" guides="1" tooltips="1" connect="1" arrows="1" fold="1" page="1" pageScale="1" pageWidth="827" pageHeight="1169" background="none" math="1" shadow="0">
      <root>
        <mxCell id="hV2nnVh4DxY_CFmcvqIs-0" />
        <mxCell id="hV2nnVh4DxY_CFmcvqIs-1" value="Frame" style="locked=1;" parent="hV2nnVh4DxY_CFmcvqIs-0" />
        <mxCell id="hV2nnVh4DxY_CFmcvqIs-2" value="" style="rounded=0;whiteSpace=wrap;html=1;fillColor=none;" parent="hV2nnVh4DxY_CFmcvqIs-1" vertex="1">
          <mxGeometry x="19.685" y="19.685" width="787.4" height="1129.9189999999999" as="geometry" />
        </mxCell>
        <mxCell id="hV2nnVh4DxY_CFmcvqIs-3" value="" style="rounded=0;whiteSpace=wrap;html=1;fillColor=none;" parent="hV2nnVh4DxY_CFmcvqIs-1" vertex="1">
          <mxGeometry x="39.37" y="39.37" width="748.03" height="1090.549" as="geometry" />
        </mxCell>
        <mxCell id="hV2nnVh4DxY_CFmcvqIs-4" value="" style="endArrow=none;html=1;entryX=0;entryY=0;entryDx=0;entryDy=0;exitX=0;exitY=0;exitDx=0;exitDy=0;" parent="hV2nnVh4DxY_CFmcvqIs-1" source="hV2nnVh4DxY_CFmcvqIs-3" target="hV2nnVh4DxY_CFmcvqIs-2" edge="1">
          <mxGeometry width="50" height="50" relative="1" as="geometry">
            <mxPoint x="80" y="430.3999999999999" as="sourcePoint" />
            <mxPoint x="130" y="380.3999999999999" as="targetPoint" />
          </mxGeometry>
        </mxCell>
        <mxCell id="hV2nnVh4DxY_CFmcvqIs-5" value="" style="endArrow=none;html=1;entryX=0;entryY=1;entryDx=0;entryDy=0;exitX=0;exitY=1;exitDx=0;exitDy=0;fontFamily=Arial;" parent="hV2nnVh4DxY_CFmcvqIs-1" source="hV2nnVh4DxY_CFmcvqIs-2" target="hV2nnVh4DxY_CFmcvqIs-3" edge="1">
          <mxGeometry width="50" height="50" relative="1" as="geometry">
            <mxPoint x="-300" y="49.39999999999998" as="sourcePoint" />
            <mxPoint x="-320.31500000000005" y="30.08500000000015" as="targetPoint" />
          </mxGeometry>
        </mxCell>
        <mxCell id="hV2nnVh4DxY_CFmcvqIs-6" value="" style="endArrow=none;html=1;entryX=1;entryY=0;entryDx=0;entryDy=0;exitX=1;exitY=0;exitDx=0;exitDy=0;" parent="hV2nnVh4DxY_CFmcvqIs-1" source="hV2nnVh4DxY_CFmcvqIs-2" target="hV2nnVh4DxY_CFmcvqIs-3" edge="1">
          <mxGeometry width="50" height="50" relative="1" as="geometry">
            <mxPoint x="840" y="240.39999999999992" as="sourcePoint" />
            <mxPoint x="860" y="160.39999999999998" as="targetPoint" />
          </mxGeometry>
        </mxCell>
        <mxCell id="hV2nnVh4DxY_CFmcvqIs-7" value="" style="group;container=1;fontFamily=Arial;" parent="hV2nnVh4DxY_CFmcvqIs-1" vertex="1" connectable="0">
          <mxGeometry x="58.99999999999999" y="950.0049999999999" width="708.6699999999998" height="177.18500000000017" as="geometry" />
        </mxCell>
        <mxCell id="hV2nnVh4DxY_CFmcvqIs-21" value="" style="endArrow=none;html=1;exitX=1;exitY=1;exitDx=0;exitDy=0;entryX=1;entryY=1;entryDx=0;entryDy=0;fontFamily=Arial;" parent="hV2nnVh4DxY_CFmcvqIs-1" source="hV2nnVh4DxY_CFmcvqIs-2" target="hV2nnVh4DxY_CFmcvqIs-3" edge="1">
          <mxGeometry width="50" height="50" relative="1" as="geometry">
            <mxPoint x="-320.31500000000005" y="817.4850000000001" as="sourcePoint" />
            <mxPoint x="779.9199999999994" y="787.8000000000002" as="targetPoint" />
          </mxGeometry>
        </mxCell>
        <mxCell id="hV2nnVh4DxY_CFmcvqIs-43" value="2" style="rounded=0;whiteSpace=wrap;html=1;fillColor=none;fontFamily=Arial;" parent="hV2nnVh4DxY_CFmcvqIs-1" vertex="1">
          <mxGeometry x="728.3399999999999" y="1090.5500000000002" width="59.055" height="39.37" as="geometry" />
        </mxCell>
        <mxCell id="hV2nnVh4DxY_CFmcvqIs-40" value="Lapas" style="rounded=0;whiteSpace=wrap;html=1;fillColor=none;fontFamily=Arial;" parent="hV2nnVh4DxY_CFmcvqIs-1" vertex="1">
          <mxGeometry x="669.24" y="1070.864" width="59.055" height="19.685" as="geometry" />
        </mxCell>
        <mxCell id="hV2nnVh4DxY_CFmcvqIs-39" value="2" style="rounded=0;whiteSpace=wrap;html=1;fillColor=none;fontFamily=Arial;" parent="hV2nnVh4DxY_CFmcvqIs-1" vertex="1">
          <mxGeometry x="669.24" y="1090.549" width="59.06" height="39.37" as="geometry" />
        </mxCell>
        <mxCell id="hV2nnVh4DxY_CFmcvqIs-44" value="Lapų" style="rounded=0;whiteSpace=wrap;html=1;fillColor=none;fontFamily=Arial;" parent="hV2nnVh4DxY_CFmcvqIs-1" vertex="1">
          <mxGeometry x="728.29" y="1070.864" width="59.055" height="19.685" as="geometry" />
        </mxCell>
        <mxCell id="hV2nnVh4DxY_CFmcvqIs-45" value="1:1" style="rounded=0;whiteSpace=wrap;html=1;fillColor=none;fontFamily=Arial;" parent="hV2nnVh4DxY_CFmcvqIs-1" vertex="1">
          <mxGeometry x="728.2899999999998" y="1031.494" width="59.06" height="39.37" as="geometry" />
        </mxCell>
        <mxCell id="hV2nnVh4DxY_CFmcvqIs-46" value="Mastelis" style="rounded=0;whiteSpace=wrap;html=1;fillColor=none;fontFamily=Arial;" parent="hV2nnVh4DxY_CFmcvqIs-1" vertex="1">
          <mxGeometry x="728.3" y="1011.8099999999998" width="59.055" height="19.685" as="geometry" />
        </mxCell>
        <mxCell id="hV2nnVh4DxY_CFmcvqIs-42" value="Laida" style="rounded=0;whiteSpace=wrap;html=1;fillColor=none;fontFamily=Arial;" parent="hV2nnVh4DxY_CFmcvqIs-1" vertex="1">
          <mxGeometry x="669.24" y="1011.8099999999998" width="59.055" height="19.685" as="geometry" />
        </mxCell>
        <mxCell id="hV2nnVh4DxY_CFmcvqIs-41" value="A" style="rounded=0;whiteSpace=wrap;html=1;fillColor=none;fontFamily=Arial;" parent="hV2nnVh4DxY_CFmcvqIs-1" vertex="1">
          <mxGeometry x="669.24" y="1031.494" width="59.055" height="39.37" as="geometry" />
        </mxCell>
        <mxCell id="hV2nnVh4DxY_CFmcvqIs-23" value="Dokumento numeris" style="rounded=0;whiteSpace=wrap;html=1;fillColor=none;fontSize=15;fontStyle=0;fontFamily=Arial;" parent="hV2nnVh4DxY_CFmcvqIs-1" vertex="1">
          <mxGeometry x="393.7" y="952.75" width="393.7" height="59.05" as="geometry" />
        </mxCell>
        <mxCell id="hV2nnVh4DxY_CFmcvqIs-27" value="&lt;font style=&quot;font-size: 23px&quot;&gt;Dokumento pavadinimas&lt;/font&gt;" style="rounded=0;whiteSpace=wrap;html=1;fillColor=none;fontFamily=Arial;" parent="hV2nnVh4DxY_CFmcvqIs-1" vertex="1">
          <mxGeometry x="393.7" y="1011.81" width="275.59" height="118.11" as="geometry" />
        </mxCell>
        <mxCell id="hV2nnVh4DxY_CFmcvqIs-24" value="https://github.com/liudasdd" style="rounded=0;whiteSpace=wrap;html=1;fillColor=none;fontFamily=Arial;fontStyle=1;fontSize=20;container=1;" parent="hV2nnVh4DxY_CFmcvqIs-1" vertex="1">
          <mxGeometry x="39.36999999999999" y="952.7599999999999" width="354.33" height="59.055" as="geometry">
            <mxRectangle x="39.36999999999999" y="952.7599999999999" width="110" height="30" as="alternateBounds" />
          </mxGeometry>
        </mxCell>
        <mxCell id="hV2nnVh4DxY_CFmcvqIs-33" value="Rengė" style="rounded=0;whiteSpace=wrap;html=1;fillColor=none;fontFamily=Arial;" parent="hV2nnVh4DxY_CFmcvqIs-1" vertex="1">
          <mxGeometry x="39.36999999999999" y="1011.8100000000001" width="98.425" height="19.685" as="geometry" />
        </mxCell>
        <mxCell id="hV2nnVh4DxY_CFmcvqIs-31" value="" style="rounded=0;whiteSpace=wrap;html=1;fillColor=none;fontFamily=Arial;" parent="hV2nnVh4DxY_CFmcvqIs-1" vertex="1">
          <mxGeometry x="39.36999999999999" y="1051.1799999999998" width="98.425" height="19.685" as="geometry" />
        </mxCell>
        <mxCell id="hV2nnVh4DxY_CFmcvqIs-30" value="" style="rounded=0;whiteSpace=wrap;html=1;fillColor=none;fontFamily=Arial;" parent="hV2nnVh4DxY_CFmcvqIs-1" vertex="1">
          <mxGeometry x="39.36999999999999" y="1070.8649999999998" width="98.425" height="19.685" as="geometry" />
        </mxCell>
        <mxCell id="hV2nnVh4DxY_CFmcvqIs-29" value="" style="rounded=0;whiteSpace=wrap;html=1;fillColor=none;fontFamily=Arial;" parent="hV2nnVh4DxY_CFmcvqIs-1" vertex="1">
          <mxGeometry x="39.36999999999999" y="1090.5499999999997" width="98.425" height="19.685" as="geometry" />
        </mxCell>
        <mxCell id="hV2nnVh4DxY_CFmcvqIs-28" value="" style="rounded=0;whiteSpace=wrap;html=1;fillColor=none;fontFamily=Arial;" parent="hV2nnVh4DxY_CFmcvqIs-1" vertex="1">
          <mxGeometry x="39.36999999999999" y="1110.2349999999997" width="98.425" height="19.685" as="geometry" />
        </mxCell>
        <mxCell id="hV2nnVh4DxY_CFmcvqIs-32" value="" style="rounded=0;whiteSpace=wrap;html=1;fillColor=none;fontFamily=Arial;" parent="hV2nnVh4DxY_CFmcvqIs-1" vertex="1">
          <mxGeometry x="39.36999999999999" y="1031.4999999999998" width="98.425" height="19.685" as="geometry" />
        </mxCell>
        <mxCell id="hV2nnVh4DxY_CFmcvqIs-15" value="" style="rounded=0;whiteSpace=wrap;html=1;fillColor=none;fontFamily=Arial;" parent="hV2nnVh4DxY_CFmcvqIs-1" vertex="1">
          <mxGeometry x="137.795" y="1110.2399999999998" width="118.11" height="19.685" as="geometry" />
        </mxCell>
        <mxCell id="hV2nnVh4DxY_CFmcvqIs-16" value="" style="rounded=0;whiteSpace=wrap;html=1;fillColor=none;fontFamily=Arial;" parent="hV2nnVh4DxY_CFmcvqIs-1" vertex="1">
          <mxGeometry x="137.795" y="1090.55" width="118.11" height="19.685" as="geometry" />
        </mxCell>
        <mxCell id="hV2nnVh4DxY_CFmcvqIs-17" value="" style="rounded=0;whiteSpace=wrap;html=1;fillColor=none;fontFamily=Arial;" parent="hV2nnVh4DxY_CFmcvqIs-1" vertex="1">
          <mxGeometry x="137.795" y="1070.8600000000001" width="118.11" height="19.685" as="geometry" />
        </mxCell>
        <mxCell id="hV2nnVh4DxY_CFmcvqIs-18" value="" style="rounded=0;whiteSpace=wrap;html=1;fillColor=none;fontFamily=Arial;" parent="hV2nnVh4DxY_CFmcvqIs-1" vertex="1">
          <mxGeometry x="137.795" y="1051.18" width="118.11" height="19.685" as="geometry" />
        </mxCell>
        <mxCell id="hV2nnVh4DxY_CFmcvqIs-19" value="" style="rounded=0;whiteSpace=wrap;html=1;fillColor=none;fontFamily=Arial;" parent="hV2nnVh4DxY_CFmcvqIs-1" vertex="1">
          <mxGeometry x="137.795" y="1031.49" width="118.11" height="19.685" as="geometry" />
        </mxCell>
        <mxCell id="hV2nnVh4DxY_CFmcvqIs-20" value="V Pavardė" style="rounded=0;whiteSpace=wrap;html=1;fillColor=none;fontFamily=Arial;" parent="hV2nnVh4DxY_CFmcvqIs-1" vertex="1">
          <mxGeometry x="137.795" y="1011.8100000000001" width="118.11" height="19.685" as="geometry" />
        </mxCell>
        <mxCell id="hV2nnVh4DxY_CFmcvqIs-9" value="" style="rounded=0;whiteSpace=wrap;html=1;fillColor=none;fontFamily=Arial;" parent="hV2nnVh4DxY_CFmcvqIs-1" vertex="1">
          <mxGeometry x="255.905" y="1110.2399999999998" width="59.055" height="19.685" as="geometry" />
        </mxCell>
        <mxCell id="hV2nnVh4DxY_CFmcvqIs-10" value="" style="rounded=0;whiteSpace=wrap;html=1;fillColor=none;fontFamily=Arial;" parent="hV2nnVh4DxY_CFmcvqIs-1" vertex="1">
          <mxGeometry x="255.90499999999997" y="1090.5500000000002" width="59.055" height="19.685" as="geometry" />
        </mxCell>
        <mxCell id="hV2nnVh4DxY_CFmcvqIs-11" value="" style="rounded=0;whiteSpace=wrap;html=1;fillColor=none;fontFamily=Arial;" parent="hV2nnVh4DxY_CFmcvqIs-1" vertex="1">
          <mxGeometry x="255.90499999999997" y="1070.87" width="59.055" height="19.685" as="geometry" />
        </mxCell>
        <mxCell id="hV2nnVh4DxY_CFmcvqIs-12" value="" style="rounded=0;whiteSpace=wrap;html=1;fillColor=none;fontFamily=Arial;" parent="hV2nnVh4DxY_CFmcvqIs-1" vertex="1">
          <mxGeometry x="255.90499999999997" y="1051.17" width="59.055" height="19.685" as="geometry" />
        </mxCell>
        <mxCell id="hV2nnVh4DxY_CFmcvqIs-13" value="" style="rounded=0;whiteSpace=wrap;html=1;fillColor=none;fontFamily=Arial;" parent="hV2nnVh4DxY_CFmcvqIs-1" vertex="1">
          <mxGeometry x="255.905" y="1031.4999999999998" width="59.055" height="19.685" as="geometry" />
        </mxCell>
        <mxCell id="hV2nnVh4DxY_CFmcvqIs-14" value="(Parašas)" style="rounded=0;whiteSpace=wrap;html=1;fillColor=none;fontFamily=Arial;" parent="hV2nnVh4DxY_CFmcvqIs-1" vertex="1">
          <mxGeometry x="255.905" y="1011.8100000000002" width="59.055" height="19.685" as="geometry" />
        </mxCell>
        <mxCell id="hV2nnVh4DxY_CFmcvqIs-38" value="2021-09-30" style="rounded=0;whiteSpace=wrap;html=1;fillColor=none;fontFamily=Arial;" parent="hV2nnVh4DxY_CFmcvqIs-1" vertex="1">
          <mxGeometry x="314.96" y="1011.8100000000002" width="78.74" height="19.685" as="geometry" />
        </mxCell>
        <mxCell id="hV2nnVh4DxY_CFmcvqIs-8" value="" style="rounded=0;whiteSpace=wrap;html=1;fillColor=none;fontFamily=Arial;" parent="hV2nnVh4DxY_CFmcvqIs-1" vertex="1">
          <mxGeometry x="314.96" y="1031.4999999999998" width="78.74" height="19.685" as="geometry" />
        </mxCell>
        <mxCell id="hV2nnVh4DxY_CFmcvqIs-37" value="" style="rounded=0;whiteSpace=wrap;html=1;fillColor=none;fontFamily=Arial;" parent="hV2nnVh4DxY_CFmcvqIs-1" vertex="1">
          <mxGeometry x="314.96" y="1051.18" width="78.74" height="19.685" as="geometry" />
        </mxCell>
        <mxCell id="hV2nnVh4DxY_CFmcvqIs-36" value="" style="rounded=0;whiteSpace=wrap;html=1;fillColor=none;fontFamily=Arial;" parent="hV2nnVh4DxY_CFmcvqIs-1" vertex="1">
          <mxGeometry x="314.96" y="1070.86" width="78.74" height="19.685" as="geometry" />
        </mxCell>
        <mxCell id="hV2nnVh4DxY_CFmcvqIs-35" value="" style="rounded=0;whiteSpace=wrap;html=1;fillColor=none;fontFamily=Arial;" parent="hV2nnVh4DxY_CFmcvqIs-1" vertex="1">
          <mxGeometry x="314.96" y="1090.5400000000002" width="78.74" height="19.685" as="geometry" />
        </mxCell>
        <mxCell id="hV2nnVh4DxY_CFmcvqIs-34" value="" style="rounded=0;whiteSpace=wrap;html=1;fillColor=none;fontFamily=Arial;" parent="hV2nnVh4DxY_CFmcvqIs-1" vertex="1">
          <mxGeometry x="314.96" y="1110.24" width="78.74" height="19.685" as="geometry" />
        </mxCell>
        <mxCell id="hV2nnVh4DxY_CFmcvqIs-47" value="Brėžinys" style="" parent="hV2nnVh4DxY_CFmcvqIs-0" />
      </root>
    </mxGraphModel>
  </diagram>
</mxfile>
